<svg xmlns="http://www.w3.org/2000/svg" width="32" height="32.037" viewBox="0 0 32 32.037"><g transform="translate(-821.746 -55.076)"><path d="M850.861,61.579a1.3,1.3,0,0,1-1.232.858h-2.184V77.993a1.315,1.315,0,0,1-1.315,1.315h-5.977V69.483a2.15,2.15,0,0,0-2.147-2.147H835.93a2.147,2.147,0,0,0-2.144,2.147v9.825H823.758a1.315,1.315,0,0,1-1.315-1.315V62.436h-2.181a1.316,1.316,0,0,1-.855-2.316l14.682-12.547a1.356,1.356,0,0,1,1.715.006l14.679,12.541A1.3,1.3,0,0,1,850.861,61.579Z" transform="translate(2.8 7.805)" fill="#1d2951"/></g></svg>